<svg width="47" height="57" viewBox="0 0 47 57" fill="none" xmlns="http://www.w3.org/2000/svg">
<g filter="url(#filter0_d)">
<path d="M30.9372 8.82145C32.4946 6.99748 33.5752 4.49338 33.5752 1.98927C33.5752 1.64921 33.5434 1.27823 33.4798 1C30.969 1.09274 27.9178 2.63849 26.1062 4.74069C24.676 6.31735 23.3411 8.82145 23.3411 11.3565C23.3411 11.7274 23.4047 12.1293 23.4364 12.253C23.5954 12.2839 23.8496 12.3148 24.1039 12.3148C26.3923 12.3148 29.2527 10.8309 30.9372 8.82145ZM32.7171 12.8404C28.9031 12.8404 25.8202 15.0972 23.8496 15.0972C21.7519 15.0972 18.955 12.964 15.6496 12.964C9.38837 12.964 3 18.0341 3 27.5249C3 33.4915 5.38372 39.7363 8.27597 43.7861C10.7868 47.2177 12.9798 50 16.0946 50C19.2093 50 20.6078 47.9905 24.4853 47.9905C28.3946 47.9905 29.2845 49.9382 32.7171 49.9382C36.1496 49.9382 38.4062 46.9085 40.5357 43.9098C42.9512 40.4782 43.9682 37.1394 44 36.9539C43.8093 36.8921 37.262 34.3262 37.262 27.0303C37.262 20.7546 42.4109 17.9413 42.6969 17.7249C39.3279 12.964 34.1473 12.8404 32.7171 12.8404Z" fill="#3E4A51"/>
<path d="M30.9372 8.82145C32.4946 6.99748 33.5752 4.49338 33.5752 1.98927C33.5752 1.64921 33.5434 1.27823 33.4798 1C30.969 1.09274 27.9178 2.63849 26.1062 4.74069C24.676 6.31735 23.3411 8.82145 23.3411 11.3565C23.3411 11.7274 23.4047 12.1293 23.4364 12.253C23.5954 12.2839 23.8496 12.3148 24.1039 12.3148C26.3923 12.3148 29.2527 10.8309 30.9372 8.82145ZM32.7171 12.8404C28.9031 12.8404 25.8202 15.0972 23.8496 15.0972C21.7519 15.0972 18.955 12.964 15.6496 12.964C9.38837 12.964 3 18.0341 3 27.5249C3 33.4915 5.38372 39.7363 8.27597 43.7861C10.7868 47.2177 12.9798 50 16.0946 50C19.2093 50 20.6078 47.9905 24.4853 47.9905C28.3946 47.9905 29.2845 49.9382 32.7171 49.9382C36.1496 49.9382 38.4062 46.9085 40.5357 43.9098C42.9512 40.4782 43.9682 37.1394 44 36.9539C43.8093 36.8921 37.262 34.3262 37.262 27.0303C37.262 20.7546 42.4109 17.9413 42.6969 17.7249C39.3279 12.964 34.1473 12.8404 32.7171 12.8404Z" stroke="#E6E6E6" stroke-width="0.5"/>
</g>
<defs>
<filter id="filter0_d" x="0.75" y="0.742523" width="45.533" height="55.5075" filterUnits="userSpaceOnUse" color-interpolation-filters="sRGB">
<feFlood flood-opacity="0" result="BackgroundImageFix"/>
<feColorMatrix in="SourceAlpha" type="matrix" values="0 0 0 0 0 0 0 0 0 0 0 0 0 0 0 0 0 0 127 0"/>
<feOffset dy="4"/>
<feGaussianBlur stdDeviation="1"/>
<feColorMatrix type="matrix" values="0 0 0 0 0 0 0 0 0 0 0 0 0 0 0 0 0 0 0.1 0"/>
<feBlend mode="normal" in2="BackgroundImageFix" result="effect1_dropShadow"/>
<feBlend mode="normal" in="SourceGraphic" in2="effect1_dropShadow" result="shape"/>
</filter>
</defs>
</svg>
